<?xml version="1.0" encoding="UTF-8"?><svg id="a" xmlns="http://www.w3.org/2000/svg" xmlns:xlink="http://www.w3.org/1999/xlink" viewBox="0 0 594.19 592.67"><defs><style>.c,.d,.e,.f{fill:#4e4871;}.g{fill:#fff;}.h{letter-spacing:-.01em;}.h,.i,.j,.k,.l,.m{fill:#636;}.d{stroke:#fff;stroke-miterlimit:10;}.j{letter-spacing:-.03em;}.n{fill:url(#b);}.k{letter-spacing:-.03em;}.l{letter-spacing:0em;}.e{letter-spacing:.01em;}.m{letter-spacing:-.06em;}.o{font-family:TheMostBeautifulGiftThree, The Most Beautiful Gift Three;font-size:33px;}.f{letter-spacing:-.02em;}</style><linearGradient id="b" x1="89.68" y1="137.91" x2="402.28" y2="450.51" gradientTransform="matrix(1, 0, 0, 1, 0, 0)" gradientUnits="userSpaceOnUse"><stop offset=".28" stop-color="#4e4871"/><stop offset=".73" stop-color="#5b3c6a"/><stop offset="1" stop-color="#636"/></linearGradient></defs><circle cx="297.39" cy="296.04" r="289.89" fill="#fff"/><text transform="translate(93.79 476.95)" font-family="TheMostBeautifulGiftThree, The Most Beautiful Gift Three" font-size="33"><tspan x="0" y="0" fill="#4e4871">Spir</tspan><tspan x="81.97" y="0" fill="#4e4871" letter-spacing="-.02em">i</tspan><tspan x="93.97" y="0" fill="#4e4871" letter-spacing=".01em">t</tspan><tspan x="112.49" y="0" fill="#4e4871">s E</tspan><tspan x="161.97" y="0" fill="#636" letter-spacing="-.03em">n</tspan><tspan x="185.98" y="0" fill="#636" letter-spacing="-.01em">t</tspan><tspan x="203.71" y="0" fill="#636">er</tspan><tspan x="247.79" y="0" fill="#636" letter-spacing="-.06em">t</tspan><tspan x="264.02" y="0" fill="#636" letter-spacing="0em">ainme</tspan><tspan x="371.28" y="0" fill="#636" letter-spacing="-.03em">n</tspan><tspan x="395.29" y="0" fill="#636">t</tspan></text><path d="M279.79,187.34c0,20.02-6.96,38.41-18.58,52.89h-19.85v-31.08h-43.16v31.08l-24.82,28.84c-36.13-9.62-62.75-42.57-62.75-81.73,0-46.72,37.87-84.59,84.58-84.59s84.58,37.87,84.58,84.59Z" fill="#4e4871" stroke="#fff" stroke-miterlimit="10"/><path d="M442.54,300.92v104c0,6.78-5.27,12.4-12.04,12.84l-150.1,9.67c-.63,.04-1.26,.04-1.88-.02l-115.52-9.46c-6.68-.55-11.82-6.12-11.82-12.82v-105.5c0-3.08,1.11-6.06,3.12-8.39l1.44-1.68c-41.01-15.83-70.1-55.63-70.1-102.23,0-60.52,49.06-109.57,109.57-109.57s109.57,49.05,109.57,109.57c0,19.18-4.93,37.21-13.6,52.89h80.44c2.98,0,5.88,1.04,8.18,2.94l58.05,47.84c2.97,2.44,4.69,6.08,4.69,9.92Z" fill="#b"/><path d="M195.21,102.75c-46.71,0-84.58,37.87-84.58,84.59,0,39.16,26.62,72.11,62.75,81.73l24.82-28.84v-31.08h43.16v31.08h19.85c11.62-14.48,18.58-32.87,18.58-52.89,0-46.72-37.87-84.59-84.58-84.59Z" fill="#fff"/><path d="M391.93,302.16c-10.75,.12-20.31,8.33-23.71,16.17v61.32l48.17-2.84v-61.32c-3.48-8.04-13.44-13.45-24.46-13.32Z" fill="#fff"/><path d="M322.02,305.24c-11.4,.12-21.55,8.33-25.15,16.17v61.32l51.11-2.84v-61.32c-3.7-8.04-14.26-13.45-25.95-13.32Z" fill="#fff"/></svg>