<?xml version="1.0" encoding="utf-8"?>
<!-- Generator: Adobe Illustrator 26.2.1, SVG Export Plug-In . SVG Version: 6.00 Build 0)  -->
<svg version="1.1" id="Layer_1" xmlns="http://www.w3.org/2000/svg" xmlns:xlink="http://www.w3.org/1999/xlink" x="0px" y="0px"
	 viewBox="0 0 1160 1160" style="enable-background:new 0 0 1160 1160;" xml:space="preserve">
<style type="text/css">
	.st0{filter:url(#Adobe_OpacityMaskFilter);}
	.st1{fill:#FFFFFF;}
	.st2{fill:none;}
	.st3{mask:url(#gmask_00000001663016006208186960000008041499384565814660_);fill:url(#SVGID_1_);}
</style>
<g transform="translate(80,80)">
	<defs>
		<filter id="Adobe_OpacityMaskFilter" filterUnits="userSpaceOnUse" x="0" y="0" width="1000" height="1000">
			<feColorMatrix  type="matrix" values="1 0 0 0 0  0 1 0 0 0  0 0 1 0 0  0 0 0 1 0"/>
		</filter>
	</defs>
	
		<mask maskUnits="userSpaceOnUse" x="0" y="0" width="1000" height="1000" id="gmask_00000001663016006208186960000008041499384565814660_">
		<g class="st0">
			<g transform="translate(320,0) scale(0.4,0.4)">
				<g transform="">
					<rect x="0" class="st1" width="100" height="100"/>
				</g>
			</g>
			<g transform="translate(360,0) scale(0.4,0.4)">
				<g transform="">
					<rect y="0" class="st1" width="100" height="100"/>
				</g>
			</g>
			<g transform="translate(400,0) scale(0.4,0.4)">
				<g transform="">
					<rect x="0" y="0" class="st1" width="100" height="100"/>
				</g>
			</g>
			<g transform="translate(520,0) scale(0.4,0.4)">
				<g transform="">
					<rect x="0" y="0" class="st1" width="100" height="100"/>
				</g>
			</g>
			<g transform="translate(320,40) scale(0.4,0.4)">
				<g transform="">
					<rect x="0" y="0" class="st1" width="100" height="100"/>
				</g>
			</g>
			<g transform="translate(360,40) scale(0.4,0.4)">
				<g transform="">
					<rect x="0" y="0" class="st1" width="100" height="100"/>
				</g>
			</g>
			<g transform="translate(440,40) scale(0.4,0.4)">
				<g transform="">
					<rect x="0" y="0" class="st1" width="100" height="100"/>
				</g>
			</g>
			<g transform="translate(480,40) scale(0.4,0.4)">
				<g transform="">
					<rect x="0" y="0" class="st1" width="100" height="100"/>
				</g>
			</g>
			<g transform="translate(560,40) scale(0.4,0.4)">
				<g transform="">
					<rect x="0" y="0" class="st1" width="100" height="100"/>
				</g>
			</g>
			<g transform="translate(640,40) scale(0.4,0.4)">
				<g transform="">
					<rect x="0" y="0" class="st1" width="100" height="100"/>
				</g>
			</g>
			<g transform="translate(320,80) scale(0.4,0.4)">
				<g transform="">
					<rect x="0" y="0" class="st1" width="100" height="100"/>
				</g>
			</g>
			<g transform="translate(400,80) scale(0.4,0.4)">
				<g transform="">
					<rect x="0" y="0" class="st1" width="100" height="100"/>
				</g>
			</g>
			<g transform="translate(480,80) scale(0.4,0.4)">
				<g transform="">
					<rect x="0" y="0" class="st1" width="100" height="100"/>
				</g>
			</g>
			<g transform="translate(520,80) scale(0.4,0.4)">
				<g transform="">
					<rect x="0" y="0" class="st1" width="100" height="100"/>
				</g>
			</g>
			<g transform="translate(600,80) scale(0.4,0.4)">
				<g transform="">
					<rect x="0" y="0" class="st1" width="100" height="100"/>
				</g>
			</g>
			<g transform="translate(640,80) scale(0.4,0.4)">
				<g transform="">
					<rect x="0" y="0" class="st1" width="100" height="100"/>
				</g>
			</g>
			<g transform="translate(360,120) scale(0.4,0.4)">
				<g transform="">
					<rect x="0" y="0" class="st1" width="100" height="100"/>
				</g>
			</g>
			<g transform="translate(440,120) scale(0.4,0.4)">
				<g transform="">
					<rect x="0" y="0" class="st1" width="100" height="100"/>
				</g>
			</g>
			<g transform="translate(480,120) scale(0.4,0.4)">
				<g transform="">
					<rect x="0" y="0" class="st1" width="100" height="100"/>
				</g>
			</g>
			<g transform="translate(520,120) scale(0.4,0.4)">
				<g transform="">
					<rect x="0" y="0" class="st1" width="100" height="100"/>
				</g>
			</g>
			<g transform="translate(640,120) scale(0.4,0.4)">
				<g transform="">
					<rect x="0" y="0" class="st1" width="100" height="100"/>
				</g>
			</g>
			<g transform="translate(320,160) scale(0.4,0.4)">
				<g transform="">
					<rect x="0" y="0" class="st1" width="100" height="100"/>
				</g>
			</g>
			<g transform="translate(360,160) scale(0.4,0.4)">
				<g transform="">
					<rect x="0" y="0" class="st1" width="100" height="100"/>
				</g>
			</g>
			<g transform="translate(400,160) scale(0.4,0.4)">
				<g transform="">
					<rect x="0" y="0" class="st1" width="100" height="100"/>
				</g>
			</g>
			<g transform="translate(480,160) scale(0.4,0.4)">
				<g transform="">
					<rect x="0" y="0" class="st1" width="100" height="100"/>
				</g>
			</g>
			<g transform="translate(640,160) scale(0.4,0.4)">
				<g transform="">
					<rect x="0" y="0" class="st1" width="100" height="100"/>
				</g>
			</g>
			<g transform="translate(400,200) scale(0.4,0.4)">
				<g transform="">
					<rect x="0" y="0" class="st1" width="100" height="100"/>
				</g>
			</g>
			<g transform="translate(440,200) scale(0.4,0.4)">
				<g transform="">
					<rect x="0" y="0" class="st1" width="100" height="100"/>
				</g>
			</g>
			<g transform="translate(560,200) scale(0.4,0.4)">
				<g transform="">
					<rect x="0" y="0" class="st1" width="100" height="100"/>
				</g>
			</g>
			<g transform="translate(640,200) scale(0.4,0.4)">
				<g transform="">
					<rect x="0" y="0" class="st1" width="100" height="100"/>
				</g>
			</g>
			<g transform="translate(320,240) scale(0.4,0.4)">
				<g transform="">
					<rect x="0" y="0" class="st1" width="100" height="100"/>
				</g>
			</g>
			<g transform="translate(400,240) scale(0.4,0.4)">
				<g transform="">
					<rect x="0" y="0" class="st1" width="100" height="100"/>
				</g>
			</g>
			<g transform="translate(480,240) scale(0.4,0.4)">
				<g transform="">
					<rect x="0" y="0" class="st1" width="100" height="100"/>
				</g>
			</g>
			<g transform="translate(560,240) scale(0.4,0.4)">
				<g transform="">
					<rect x="0" y="0" class="st1" width="100" height="100"/>
				</g>
			</g>
			<g transform="translate(640,240) scale(0.4,0.4)">
				<g transform="">
					<rect x="0" y="0" class="st1" width="100" height="100"/>
				</g>
			</g>
			<g transform="translate(360,280) scale(0.4,0.4)">
				<g transform="">
					<rect x="0" y="0" class="st1" width="100" height="100"/>
				</g>
			</g>
			<g transform="translate(400,280) scale(0.4,0.4)">
				<g transform="">
					<rect x="0" y="0" class="st1" width="100" height="100"/>
				</g>
			</g>
			<g transform="translate(440,280) scale(0.4,0.4)">
				<g transform="">
					<rect x="0" y="0" class="st1" width="100" height="100"/>
				</g>
			</g>
			<g transform="translate(520,280) scale(0.4,0.4)">
				<g transform="">
					<rect x="0" y="0" class="st1" width="100" height="100"/>
				</g>
			</g>
			<g transform="translate(560,280) scale(0.4,0.4)">
				<g transform="">
					<rect x="0" y="0" class="st1" width="100" height="100"/>
				</g>
			</g>
			<g transform="translate(600,280) scale(0.4,0.4)">
				<g transform="">
					<rect x="0" y="0" class="st1" width="100" height="100"/>
				</g>
			</g>
			<g transform="translate(0,320) scale(0.4,0.4)">
				<g transform="">
					<rect x="0" y="0" class="st1" width="100" height="100"/>
				</g>
			</g>
			<g transform="translate(120,320) scale(0.4,0.4)">
				<g transform="">
					<rect x="0" y="0" class="st1" width="100" height="100"/>
				</g>
			</g>
			<g transform="translate(160,320) scale(0.4,0.4)">
				<g transform="">
					<rect x="0" y="0" class="st1" width="100" height="100"/>
				</g>
			</g>
			<g transform="translate(200,320) scale(0.4,0.4)">
				<g transform="">
					<rect x="0" y="0" class="st1" width="100" height="100"/>
				</g>
			</g>
			<g transform="translate(240,320) scale(0.4,0.4)">
				<g transform="">
					<rect x="0" y="0" class="st1" width="100" height="100"/>
				</g>
			</g>
			<g transform="translate(280,320) scale(0.4,0.4)">
				<g transform="">
					<rect x="0" y="0" class="st1" width="100" height="100"/>
				</g>
			</g>
			<g transform="translate(320,320) scale(0.4,0.4)">
				<g transform="">
					<rect x="0" y="0" class="st1" width="100" height="100"/>
				</g>
			</g>
			<g transform="translate(360,320) scale(0.4,0.4)">
				<g transform="">
					<rect x="0" y="0" class="st1" width="100" height="100"/>
				</g>
			</g>
			<g transform="translate(440,320) scale(0.4,0.4)">
				<g transform="">
					<rect x="0" y="0" class="st1" width="100" height="100"/>
				</g>
			</g>
			<g transform="translate(480,320) scale(0.4,0.4)">
				<g transform="">
					<rect x="0" y="0" class="st1" width="100" height="100"/>
				</g>
			</g>
			<g transform="translate(600,320) scale(0.4,0.4)">
				<g transform="">
					<rect x="0" y="0" class="st1" width="100" height="100"/>
				</g>
			</g>
			<g transform="translate(680,320) scale(0.4,0.4)">
				<g transform="">
					<rect x="0" y="0" class="st1" width="100" height="100"/>
				</g>
			</g>
			<g transform="translate(800,320) scale(0.4,0.4)">
				<g transform="">
					<rect x="0" y="0" class="st1" width="100" height="100"/>
				</g>
			</g>
			<g transform="translate(880,320) scale(0.4,0.4)">
				<g transform="">
					<rect x="0" y="0" class="st1" width="100" height="100"/>
				</g>
			</g>
			<g transform="translate(920,320) scale(0.4,0.4)">
				<g transform="">
					<rect x="0" y="0" class="st1" width="100" height="100"/>
				</g>
			</g>
			<g transform="translate(960,320) scale(0.4,0.4)">
				<g transform="">
					<rect x="0" y="0" class="st1" width="100" height="100"/>
				</g>
			</g>
			<g transform="translate(80,360) scale(0.4,0.4)">
				<g transform="">
					<rect x="0" y="0" class="st1" width="100" height="100"/>
				</g>
			</g>
			<g transform="translate(160,360) scale(0.4,0.4)">
				<g transform="">
					<rect x="0" y="0" class="st1" width="100" height="100"/>
				</g>
			</g>
			<g transform="translate(200,360) scale(0.4,0.4)">
				<g transform="">
					<rect x="0" y="0" class="st1" width="100" height="100"/>
				</g>
			</g>
			<g transform="translate(360,360) scale(0.4,0.4)">
				<g transform="">
					<rect x="0" y="0" class="st1" width="100" height="100"/>
				</g>
			</g>
			<g transform="translate(400,360) scale(0.4,0.4)">
				<g transform="">
					<rect x="0" y="0" class="st1" width="100" height="100"/>
				</g>
			</g>
			<g transform="translate(480,360) scale(0.4,0.4)">
				<g transform="">
					<rect x="0" y="0" class="st1" width="100" height="100"/>
				</g>
			</g>
			<g transform="translate(520,360) scale(0.4,0.4)">
				<g transform="">
					<rect x="0" y="0" class="st1" width="100" height="100"/>
				</g>
			</g>
			<g transform="translate(560,360) scale(0.4,0.4)">
				<g transform="">
					<rect x="0" y="0" class="st1" width="100" height="100"/>
				</g>
			</g>
			<g transform="translate(600,360) scale(0.4,0.4)">
				<g transform="">
					<rect x="0" y="0" class="st1" width="100" height="100"/>
				</g>
			</g>
			<g transform="translate(680,360) scale(0.4,0.4)">
				<g transform="">
					<rect x="0" y="0" class="st1" width="100" height="100"/>
				</g>
			</g>
			<g transform="translate(760,360) scale(0.4,0.4)">
				<g transform="">
					<rect x="0" y="0" class="st1" width="100" height="100"/>
				</g>
			</g>
			<g transform="translate(800,360) scale(0.4,0.4)">
				<g transform="">
					<rect x="0" y="0" class="st1" width="100" height="100"/>
				</g>
			</g>
			<g transform="translate(840,360) scale(0.4,0.4)">
				<g transform="">
					<rect x="0" y="0" class="st1" width="100" height="100"/>
				</g>
			</g>
			<g transform="translate(880,360) scale(0.4,0.4)">
				<g transform="">
					<rect x="0" y="0" class="st1" width="100" height="100"/>
				</g>
			</g>
			<g transform="translate(920,360) scale(0.4,0.4)">
				<g transform="">
					<rect x="0" y="0" class="st1" width="100" height="100"/>
				</g>
			</g>
			<g transform="translate(0,400) scale(0.4,0.4)">
				<g transform="">
					<rect x="0" y="0" class="st1" width="100" height="100"/>
				</g>
			</g>
			<g transform="translate(40,400) scale(0.4,0.4)">
				<g transform="">
					<rect x="0" y="0" class="st1" width="100" height="100"/>
				</g>
			</g>
			<g transform="translate(80,400) scale(0.4,0.4)">
				<g transform="">
					<rect x="0" y="0" class="st1" width="100" height="100"/>
				</g>
			</g>
			<g transform="translate(120,400) scale(0.4,0.4)">
				<g transform="">
					<rect x="0" y="0" class="st1" width="100" height="100"/>
				</g>
			</g>
			<g transform="translate(200,400) scale(0.4,0.4)">
				<g transform="">
					<rect x="0" y="0" class="st1" width="100" height="100"/>
				</g>
			</g>
			<g transform="translate(240,400) scale(0.4,0.4)">
				<g transform="">
					<rect x="0" y="0" class="st1" width="100" height="100"/>
				</g>
			</g>
			<g transform="translate(480,400) scale(0.4,0.4)">
				<g transform="">
					<rect x="0" y="0" class="st1" width="100" height="100"/>
				</g>
			</g>
			<g transform="translate(520,400) scale(0.4,0.4)">
				<g transform="">
					<rect x="0" y="0" class="st1" width="100" height="100"/>
				</g>
			</g>
			<g transform="translate(600,400) scale(0.4,0.4)">
				<g transform="">
					<rect x="0" y="0" class="st1" width="100" height="100"/>
				</g>
			</g>
			<g transform="translate(720,400) scale(0.4,0.4)">
				<g transform="">
					<rect x="0" y="0" class="st1" width="100" height="100"/>
				</g>
			</g>
			<g transform="translate(760,400) scale(0.4,0.4)">
				<g transform="">
					<rect x="0" y="0" class="st1" width="100" height="100"/>
				</g>
			</g>
			<g transform="translate(840,400) scale(0.4,0.4)">
				<g transform="">
					<rect x="0" y="0" class="st1" width="100" height="100"/>
				</g>
			</g>
			<g transform="translate(960,400) scale(0.4,0.4)">
				<g transform="">
					<rect x="0" y="0" class="st1" width="100" height="100"/>
				</g>
			</g>
			<g transform="translate(120,440) scale(0.4,0.4)">
				<g transform="">
					<rect x="0" y="0" class="st1" width="100" height="100"/>
				</g>
			</g>
			<g transform="translate(320,440) scale(0.4,0.4)">
				<g transform="">
					<rect x="0" y="0" class="st1" width="100" height="100"/>
				</g>
			</g>
			<g transform="translate(360,440) scale(0.4,0.4)">
				<g transform="">
					<rect x="0" y="0" class="st1" width="100" height="100"/>
				</g>
			</g>
			<g transform="translate(440,440) scale(0.4,0.4)">
				<g transform="">
					<rect x="0" y="0" class="st1" width="100" height="100"/>
				</g>
			</g>
			<g transform="translate(600,440) scale(0.4,0.4)">
				<g transform="">
					<rect x="0" y="0" class="st1" width="100" height="100"/>
				</g>
			</g>
			<g transform="translate(640,440) scale(0.4,0.4)">
				<g transform="">
					<rect x="0" y="0" class="st1" width="100" height="100"/>
				</g>
			</g>
			<g transform="translate(760,440) scale(0.4,0.4)">
				<g transform="">
					<rect x="0" y="0" class="st1" width="100" height="100"/>
				</g>
			</g>
			<g transform="translate(840,440) scale(0.4,0.4)">
				<g transform="">
					<rect x="0" y="0" class="st1" width="100" height="100"/>
				</g>
			</g>
			<g transform="translate(880,440) scale(0.4,0.4)">
				<g transform="">
					<rect x="0" y="0" class="st1" width="100" height="100"/>
				</g>
			</g>
			<g transform="translate(920,440) scale(0.4,0.4)">
				<g transform="">
					<rect x="0" y="0" class="st1" width="100" height="100"/>
				</g>
			</g>
			<g transform="translate(960,440) scale(0.4,0.4)">
				<g transform="">
					<rect x="0" y="0" class="st1" width="100" height="100"/>
				</g>
			</g>
			<g transform="translate(0,480) scale(0.4,0.4)">
				<g transform="">
					<rect x="0" y="0" class="st1" width="100" height="100"/>
				</g>
			</g>
			<g transform="translate(80,480) scale(0.4,0.4)">
				<g transform="">
					<rect x="0" y="0" class="st1" width="100" height="100"/>
				</g>
			</g>
			<g transform="translate(160,480) scale(0.4,0.4)">
				<g transform="">
					<rect x="0" y="0" class="st1" width="100" height="100"/>
				</g>
			</g>
			<g transform="translate(240,480) scale(0.4,0.4)">
				<g transform="">
					<rect x="0" y="0" class="st1" width="100" height="100"/>
				</g>
			</g>
			<g transform="translate(280,480) scale(0.4,0.4)">
				<g transform="">
					<rect x="0" y="0" class="st1" width="100" height="100"/>
				</g>
			</g>
			<g transform="translate(360,480) scale(0.4,0.4)">
				<g transform="">
					<rect x="0" y="0" class="st1" width="100" height="100"/>
				</g>
			</g>
			<g transform="translate(480,480) scale(0.4,0.4)">
				<g transform="">
					<rect x="0" y="0" class="st1" width="100" height="100"/>
				</g>
			</g>
			<g transform="translate(600,480) scale(0.4,0.4)">
				<g transform="">
					<rect x="0" y="0" class="st1" width="100" height="100"/>
				</g>
			</g>
			<g transform="translate(640,480) scale(0.4,0.4)">
				<g transform="">
					<rect x="0" y="0" class="st1" width="100" height="100"/>
				</g>
			</g>
			<g transform="translate(720,480) scale(0.4,0.4)">
				<g transform="">
					<rect x="0" y="0" class="st1" width="100" height="100"/>
				</g>
			</g>
			<g transform="translate(960,480) scale(0.4,0.4)">
				<g transform="">
					<rect x="0" y="0" class="st1" width="100" height="100"/>
				</g>
			</g>
			<g transform="translate(0,520) scale(0.4,0.4)">
				<g transform="">
					<rect x="0" y="0" class="st1" width="100" height="100"/>
				</g>
			</g>
			<g transform="translate(80,520) scale(0.4,0.4)">
				<g transform="">
					<rect x="0" y="0" class="st1" width="100" height="100"/>
				</g>
			</g>
			<g transform="translate(120,520) scale(0.4,0.4)">
				<g transform="">
					<rect x="0" y="0" class="st1" width="100" height="100"/>
				</g>
			</g>
			<g transform="translate(160,520) scale(0.4,0.4)">
				<g transform="">
					<rect x="0" y="0" class="st1" width="100" height="100"/>
				</g>
			</g>
			<g transform="translate(200,520) scale(0.4,0.4)">
				<g transform="">
					<rect x="0" y="0" class="st1" width="100" height="100"/>
				</g>
			</g>
			<g transform="translate(320,520) scale(0.4,0.4)">
				<g transform="">
					<rect x="0" y="0" class="st1" width="100" height="100"/>
				</g>
			</g>
			<g transform="translate(480,520) scale(0.4,0.4)">
				<g transform="">
					<rect x="0" y="0" class="st1" width="100" height="100"/>
				</g>
			</g>
			<g transform="translate(520,520) scale(0.4,0.4)">
				<g transform="">
					<rect x="0" y="0" class="st1" width="100" height="100"/>
				</g>
			</g>
			<g transform="translate(560,520) scale(0.4,0.4)">
				<g transform="">
					<rect x="0" y="0" class="st1" width="100" height="100"/>
				</g>
			</g>
			<g transform="translate(600,520) scale(0.4,0.4)">
				<g transform="">
					<rect x="0" y="0" class="st1" width="100" height="100"/>
				</g>
			</g>
			<g transform="translate(640,520) scale(0.4,0.4)">
				<g transform="">
					<rect x="0" y="0" class="st1" width="100" height="100"/>
				</g>
			</g>
			<g transform="translate(680,520) scale(0.4,0.4)">
				<g transform="">
					<rect x="0" y="0" class="st1" width="100" height="100"/>
				</g>
			</g>
			<g transform="translate(800,520) scale(0.4,0.4)">
				<g transform="">
					<rect x="0" y="0" class="st1" width="100" height="100"/>
				</g>
			</g>
			<g transform="translate(920,520) scale(0.4,0.4)">
				<g transform="">
					<rect x="0" y="0" class="st1" width="100" height="100"/>
				</g>
			</g>
			<g transform="translate(0,560) scale(0.4,0.4)">
				<g transform="">
					<rect x="0" y="0" class="st1" width="100" height="100"/>
				</g>
			</g>
			<g transform="translate(40,560) scale(0.4,0.4)">
				<g transform="">
					<rect x="0" y="0" class="st1" width="100" height="100"/>
				</g>
			</g>
			<g transform="translate(120,560) scale(0.4,0.4)">
				<g transform="">
					<rect x="0" y="0" class="st1" width="100" height="100"/>
				</g>
			</g>
			<g transform="translate(160,560) scale(0.4,0.4)">
				<g transform="">
					<rect x="0" y="0" class="st1" width="100" height="100"/>
				</g>
			</g>
			<g transform="translate(200,560) scale(0.4,0.4)">
				<g transform="">
					<rect x="0" y="0" class="st1" width="100" height="100"/>
				</g>
			</g>
			<g transform="translate(240,560) scale(0.4,0.4)">
				<g transform="">
					<rect x="0" y="0" class="st1" width="100" height="100"/>
				</g>
			</g>
			<g transform="translate(360,560) scale(0.4,0.4)">
				<g transform="">
					<rect x="0" y="0" class="st1" width="100" height="100"/>
				</g>
			</g>
			<g transform="translate(400,560) scale(0.4,0.4)">
				<g transform="">
					<rect x="0" y="0" class="st1" width="100" height="100"/>
				</g>
			</g>
			<g transform="translate(560,560) scale(0.4,0.4)">
				<g transform="">
					<rect x="0" y="0" class="st1" width="100" height="100"/>
				</g>
			</g>
			<g transform="translate(600,560) scale(0.4,0.4)">
				<g transform="">
					<rect x="0" y="0" class="st1" width="100" height="100"/>
				</g>
			</g>
			<g transform="translate(680,560) scale(0.4,0.4)">
				<g transform="">
					<rect x="0" y="0" class="st1" width="100" height="100"/>
				</g>
			</g>
			<g transform="translate(720,560) scale(0.4,0.4)">
				<g transform="">
					<rect x="0" y="0" class="st1" width="100" height="100"/>
				</g>
			</g>
			<g transform="translate(800,560) scale(0.4,0.4)">
				<g transform="">
					<rect x="0" y="0" class="st1" width="100" height="100"/>
				</g>
			</g>
			<g transform="translate(840,560) scale(0.4,0.4)">
				<g transform="">
					<rect x="0" y="0" class="st1" width="100" height="100"/>
				</g>
			</g>
			<g transform="translate(880,560) scale(0.4,0.4)">
				<g transform="">
					<rect x="0" y="0" class="st1" width="100" height="100"/>
				</g>
			</g>
			<g transform="translate(920,560) scale(0.4,0.4)">
				<g transform="">
					<rect x="0" y="0" class="st1" width="100" height="100"/>
				</g>
			</g>
			<g transform="translate(960,560) scale(0.4,0.4)">
				<g transform="">
					<rect x="0" y="0" class="st1" width="100" height="100"/>
				</g>
			</g>
			<g transform="translate(0,600) scale(0.4,0.4)">
				<g transform="">
					<rect x="0" y="0" class="st1" width="100" height="100"/>
				</g>
			</g>
			<g transform="translate(80,600) scale(0.4,0.4)">
				<g transform="">
					<rect x="0" y="0" class="st1" width="100" height="100"/>
				</g>
			</g>
			<g transform="translate(280,600) scale(0.4,0.4)">
				<g transform="">
					<rect x="0" y="0" class="st1" width="100" height="100"/>
				</g>
			</g>
			<g transform="translate(320,600) scale(0.4,0.4)">
				<g transform="">
					<rect x="0" y="0" class="st1" width="100" height="100"/>
				</g>
			</g>
			<g transform="translate(440,600) scale(0.4,0.4)">
				<g transform="">
					<rect x="0" y="0" class="st1" width="100" height="100"/>
				</g>
			</g>
			<g transform="translate(480,600) scale(0.4,0.4)">
				<g transform="">
					<rect x="0" y="0" class="st1" width="100" height="100"/>
				</g>
			</g>
			<g transform="translate(560,600) scale(0.4,0.4)">
				<g transform="">
					<rect x="0" y="0" class="st1" width="100" height="100"/>
				</g>
			</g>
			<g transform="translate(680,600) scale(0.4,0.4)">
				<g transform="">
					<rect x="0" y="0" class="st1" width="100" height="100"/>
				</g>
			</g>
			<g transform="translate(760,600) scale(0.4,0.4)">
				<g transform="">
					<rect x="0" y="0" class="st1" width="100" height="100"/>
				</g>
			</g>
			<g transform="translate(840,600) scale(0.4,0.4)">
				<g transform="">
					<rect x="0" y="0" class="st1" width="100" height="100"/>
				</g>
			</g>
			<g transform="translate(880,600) scale(0.4,0.4)">
				<g transform="">
					<rect x="0" y="0" class="st1" width="100" height="100"/>
				</g>
			</g>
			<g transform="translate(960,600) scale(0.4,0.4)">
				<g transform="">
					<rect x="0" y="0" class="st1" width="100" height="100"/>
				</g>
			</g>
			<g transform="translate(0,640) scale(0.4,0.4)">
				<g transform="">
					<rect x="0" y="0" class="st1" width="100" height="100"/>
				</g>
			</g>
			<g transform="translate(80,640) scale(0.4,0.4)">
				<g transform="">
					<rect x="0" y="0" class="st1" width="100" height="100"/>
				</g>
			</g>
			<g transform="translate(120,640) scale(0.4,0.4)">
				<g transform="">
					<rect x="0" y="0" class="st1" width="100" height="100"/>
				</g>
			</g>
			<g transform="translate(200,640) scale(0.4,0.4)">
				<g transform="">
					<rect x="0" y="0" class="st1" width="100" height="100"/>
				</g>
			</g>
			<g transform="translate(240,640) scale(0.4,0.4)">
				<g transform="">
					<rect x="0" y="0" class="st1" width="100" height="100"/>
				</g>
			</g>
			<g transform="translate(320,640) scale(0.4,0.4)">
				<g transform="">
					<rect x="0" y="0" class="st1" width="100" height="100"/>
				</g>
			</g>
			<g transform="translate(360,640) scale(0.4,0.4)">
				<g transform="">
					<rect x="0" y="0" class="st1" width="100" height="100"/>
				</g>
			</g>
			<g transform="translate(440,640) scale(0.4,0.4)">
				<g transform="">
					<rect x="0" y="0" class="st1" width="100" height="100"/>
				</g>
			</g>
			<g transform="translate(520,640) scale(0.4,0.4)">
				<g transform="">
					<rect x="0" y="0" class="st1" width="100" height="100"/>
				</g>
			</g>
			<g transform="translate(600,640) scale(0.4,0.4)">
				<g transform="">
					<rect x="0" y="0" class="st1" width="100" height="100"/>
				</g>
			</g>
			<g transform="translate(640,640) scale(0.4,0.4)">
				<g transform="">
					<rect x="0" y="0" class="st1" width="100" height="100"/>
				</g>
			</g>
			<g transform="translate(680,640) scale(0.4,0.4)">
				<g transform="">
					<rect x="0" y="0" class="st1" width="100" height="100"/>
				</g>
			</g>
			<g transform="translate(720,640) scale(0.4,0.4)">
				<g transform="">
					<rect x="0" y="0" class="st1" width="100" height="100"/>
				</g>
			</g>
			<g transform="translate(760,640) scale(0.4,0.4)">
				<g transform="">
					<rect x="0" y="0" class="st1" width="100" height="100"/>
				</g>
			</g>
			<g transform="translate(800,640) scale(0.4,0.4)">
				<g transform="">
					<rect x="0" y="0" class="st1" width="100" height="100"/>
				</g>
			</g>
			<g transform="translate(880,640) scale(0.4,0.4)">
				<g transform="">
					<rect x="0" y="0" class="st1" width="100" height="100"/>
				</g>
			</g>
			<g transform="translate(920,640) scale(0.4,0.4)">
				<g transform="">
					<rect x="0" y="0" class="st1" width="100" height="100"/>
				</g>
			</g>
			<g transform="translate(320,680) scale(0.4,0.4)">
				<g transform="">
					<rect x="0" y="0" class="st1" width="100" height="100"/>
				</g>
			</g>
			<g transform="translate(480,680) scale(0.4,0.4)">
				<g transform="">
					<rect x="0" y="0" class="st1" width="100" height="100"/>
				</g>
			</g>
			<g transform="translate(560,680) scale(0.4,0.4)">
				<g transform="">
					<rect x="0" y="0" class="st1" width="100" height="100"/>
				</g>
			</g>
			<g transform="translate(640,680) scale(0.4,0.4)">
				<g transform="">
					<rect x="0" y="0" class="st1" width="100" height="100"/>
				</g>
			</g>
			<g transform="translate(800,680) scale(0.4,0.4)">
				<g transform="">
					<rect x="0" y="0" class="st1" width="100" height="100"/>
				</g>
			</g>
			<g transform="translate(880,680) scale(0.4,0.4)">
				<g transform="">
					<rect x="0" y="0" class="st1" width="100" height="100"/>
				</g>
			</g>
			<g transform="translate(920,680) scale(0.4,0.4)">
				<g transform="">
					<rect x="0" y="0" class="st1" width="100" height="100"/>
				</g>
			</g>
			<g transform="translate(320,720) scale(0.4,0.4)">
				<g transform="">
					<rect x="0" y="0" class="st1" width="100" height="100"/>
				</g>
			</g>
			<g transform="translate(400,720) scale(0.4,0.4)">
				<g transform="">
					<rect x="0" y="0" class="st1" width="100" height="100"/>
				</g>
			</g>
			<g transform="translate(440,720) scale(0.4,0.4)">
				<g transform="">
					<rect x="0" y="0" class="st1" width="100" height="100"/>
				</g>
			</g>
			<g transform="translate(560,720) scale(0.4,0.4)">
				<g transform="">
					<rect x="0" y="0" class="st1" width="100" height="100"/>
				</g>
			</g>
			<g transform="translate(640,720) scale(0.4,0.4)">
				<g transform="">
					<rect x="0" y="0" class="st1" width="100" height="100"/>
				</g>
			</g>
			<g transform="translate(720,720) scale(0.4,0.4)">
				<g transform="">
					<rect x="0" y="0" class="st1" width="100" height="100"/>
				</g>
			</g>
			<g transform="translate(800,720) scale(0.4,0.4)">
				<g transform="">
					<rect x="0" y="0" class="st1" width="100" height="100"/>
				</g>
			</g>
			<g transform="translate(960,720) scale(0.4,0.4)">
				<g transform="">
					<rect x="0" y="0" class="st1" width="100" height="100"/>
				</g>
			</g>
			<g transform="translate(320,760) scale(0.4,0.4)">
				<g transform="">
					<rect x="0" y="0" class="st1" width="100" height="100"/>
				</g>
			</g>
			<g transform="translate(400,760) scale(0.4,0.4)">
				<g transform="">
					<rect x="0" y="0" class="st1" width="100" height="100"/>
				</g>
			</g>
			<g transform="translate(480,760) scale(0.4,0.4)">
				<g transform="">
					<rect x="0" y="0" class="st1" width="100" height="100"/>
				</g>
			</g>
			<g transform="translate(520,760) scale(0.4,0.4)">
				<g transform="">
					<rect x="0" y="0" class="st1" width="100" height="100"/>
				</g>
			</g>
			<g transform="translate(560,760) scale(0.4,0.4)">
				<g transform="">
					<rect x="0" y="0" class="st1" width="100" height="100"/>
				</g>
			</g>
			<g transform="translate(600,760) scale(0.4,0.4)">
				<g transform="">
					<rect x="0" y="0" class="st1" width="100" height="100"/>
				</g>
			</g>
			<g transform="translate(640,760) scale(0.4,0.4)">
				<g transform="">
					<rect x="0" y="0" class="st1" width="100" height="100"/>
				</g>
			</g>
			<g transform="translate(800,760) scale(0.4,0.4)">
				<g transform="">
					<rect x="0" y="0" class="st1" width="100" height="100"/>
				</g>
			</g>
			<g transform="translate(320,800) scale(0.4,0.4)">
				<g transform="">
					<rect x="0" y="0" class="st1" width="100" height="100"/>
				</g>
			</g>
			<g transform="translate(400,800) scale(0.4,0.4)">
				<g transform="">
					<rect x="0" y="0" class="st1" width="100" height="100"/>
				</g>
			</g>
			<g transform="translate(480,800) scale(0.4,0.4)">
				<g transform="">
					<rect x="0" y="0" class="st1" width="100" height="100"/>
				</g>
			</g>
			<g transform="translate(600,800) scale(0.4,0.4)">
				<g transform="">
					<rect x="0" y="0" class="st1" width="100" height="100"/>
				</g>
			</g>
			<g transform="translate(640,800) scale(0.4,0.4)">
				<g transform="">
					<rect x="0" y="0" class="st1" width="100" height="100"/>
				</g>
			</g>
			<g transform="translate(680,800) scale(0.4,0.4)">
				<g transform="">
					<rect x="0" y="0" class="st1" width="100" height="100"/>
				</g>
			</g>
			<g transform="translate(720,800) scale(0.4,0.4)">
				<g transform="">
					<rect x="0" y="0" class="st1" width="100" height="100"/>
				</g>
			</g>
			<g transform="translate(760,800) scale(0.4,0.4)">
				<g transform="">
					<rect x="0" y="0" class="st1" width="100" height="100"/>
				</g>
			</g>
			<g transform="translate(800,800) scale(0.4,0.4)">
				<g transform="">
					<rect x="0" y="0" class="st1" width="100" height="100"/>
				</g>
			</g>
			<g transform="translate(320,840) scale(0.4,0.4)">
				<g transform="">
					<rect x="0" y="0" class="st1" width="100" height="100"/>
				</g>
			</g>
			<g transform="translate(360,840) scale(0.4,0.4)">
				<g transform="">
					<rect x="0" y="0" class="st1" width="100" height="100"/>
				</g>
			</g>
			<g transform="translate(440,840) scale(0.4,0.4)">
				<g transform="">
					<rect x="0" y="0" class="st1" width="100" height="100"/>
				</g>
			</g>
			<g transform="translate(520,840) scale(0.4,0.4)">
				<g transform="">
					<rect x="0" y="0" class="st1" width="100" height="100"/>
				</g>
			</g>
			<g transform="translate(560,840) scale(0.4,0.4)">
				<g transform="">
					<rect x="0" y="0" class="st1" width="100" height="100"/>
				</g>
			</g>
			<g transform="translate(720,840) scale(0.4,0.4)">
				<g transform="">
					<rect x="0" y="0" class="st1" width="100" height="100"/>
				</g>
			</g>
			<g transform="translate(920,840) scale(0.4,0.4)">
				<g transform="">
					<rect x="0" y="0" class="st1" width="100" height="100"/>
				</g>
			</g>
			<g transform="translate(960,840) scale(0.4,0.4)">
				<g transform="">
					<rect x="0" y="0" class="st1" width="100" height="100"/>
				</g>
			</g>
			<g transform="translate(440,880) scale(0.4,0.4)">
				<g transform="">
					<rect x="0" y="0" class="st1" width="100" height="100"/>
				</g>
			</g>
			<g transform="translate(480,880) scale(0.4,0.4)">
				<g transform="">
					<rect x="0" y="0" class="st1" width="100" height="100"/>
				</g>
			</g>
			<g transform="translate(520,880) scale(0.4,0.4)">
				<g transform="">
					<rect x="0" y="0" class="st1" width="100" height="100"/>
				</g>
			</g>
			<g transform="translate(600,880) scale(0.4,0.4)">
				<g transform="">
					<rect x="0" y="0" class="st1" width="100" height="100"/>
				</g>
			</g>
			<g transform="translate(640,880) scale(0.4,0.4)">
				<g transform="">
					<rect x="0" y="0" class="st1" width="100" height="100"/>
				</g>
			</g>
			<g transform="translate(680,880) scale(0.4,0.4)">
				<g transform="">
					<rect x="0" y="0" class="st1" width="100" height="100"/>
				</g>
			</g>
			<g transform="translate(800,880) scale(0.4,0.4)">
				<g transform="">
					<rect x="0" y="0" class="st1" width="100" height="100"/>
				</g>
			</g>
			<g transform="translate(840,880) scale(0.4,0.4)">
				<g transform="">
					<rect x="0" y="0" class="st1" width="100" height="100"/>
				</g>
			</g>
			<g transform="translate(880,880) scale(0.4,0.4)">
				<g transform="">
					<rect x="0" y="0" class="st1" width="100" height="100"/>
				</g>
			</g>
			<g transform="translate(920,880) scale(0.4,0.4)">
				<g transform="">
					<rect x="0" y="0" class="st1" width="100" height="100"/>
				</g>
			</g>
			<g transform="translate(960,880) scale(0.4,0.4)">
				<g transform="">
					<rect x="0" y="0" class="st1" width="100" height="100"/>
				</g>
			</g>
			<g transform="translate(360,920) scale(0.4,0.4)">
				<g transform="">
					<rect x="0" y="0" class="st1" width="100" height="100"/>
				</g>
			</g>
			<g transform="translate(400,920) scale(0.4,0.4)">
				<g transform="">
					<rect x="0" y="0" class="st1" width="100" height="100"/>
				</g>
			</g>
			<g transform="translate(440,920) scale(0.4,0.4)">
				<g transform="">
					<rect x="0" y="0" class="st1" width="100" height="100"/>
				</g>
			</g>
			<g transform="translate(480,920) scale(0.4,0.4)">
				<g transform="">
					<rect x="0" y="0" class="st1" width="100" height="100"/>
				</g>
			</g>
			<g transform="translate(560,920) scale(0.4,0.4)">
				<g transform="">
					<rect x="0" y="0" class="st1" width="100" height="100"/>
				</g>
			</g>
			<g transform="translate(600,920) scale(0.4,0.4)">
				<g transform="">
					<rect x="0" y="0" class="st1" width="100" height="100"/>
				</g>
			</g>
			<g transform="translate(760,920) scale(0.4,0.4)">
				<g transform="">
					<rect x="0" y="0" class="st1" width="100" height="100"/>
				</g>
			</g>
			<g transform="translate(800,920) scale(0.4,0.4)">
				<g transform="">
					<rect x="0" y="0" class="st1" width="100" height="100"/>
				</g>
			</g>
			<g transform="translate(880,920) scale(0.4,0.4)">
				<g transform="">
					<rect x="0" y="0" class="st1" width="100" height="100"/>
				</g>
			</g>
			<g transform="translate(920,920) scale(0.4,0.4)">
				<g transform="">
					<rect x="0" y="0" class="st1" width="100" height="100"/>
				</g>
			</g>
			<g transform="translate(960,920) scale(0.4,0.4)">
				<g transform="">
					<rect x="0" y="0" class="st1" width="100" height="100"/>
				</g>
			</g>
			<g transform="translate(320,960) scale(0.4,0.4)">
				<g transform="">
					<rect x="0" y="0" class="st1" width="100" height="100"/>
				</g>
			</g>
			<g transform="translate(440,960) scale(0.4,0.4)">
				<g transform="">
					<rect x="0" y="0" class="st1" width="100" height="100"/>
				</g>
			</g>
			<g transform="translate(640,960) scale(0.4,0.4)">
				<g transform="">
					<rect x="0" y="0" class="st1" width="100" height="100"/>
				</g>
			</g>
			<g transform="translate(680,960) scale(0.4,0.4)">
				<g transform="">
					<rect x="0" y="0" class="st1" width="100" height="100"/>
				</g>
			</g>
			<g transform="translate(840,960) scale(0.4,0.4)">
				<g transform="">
					<rect x="0" y="0" class="st1" width="100" height="100"/>
				</g>
			</g>
			<g transform="translate(960,960) scale(0.4,0.4)">
				<g transform="">
					<rect x="0" y="0" class="st1" width="100" height="100"/>
				</g>
			</g>
			<g transform="translate(0,0) scale(2.8, 2.8)">
				<g transform="">
					<g>
						<rect x="15" y="15" class="st2" width="70" height="70"/>
						<path class="st1" d="M85,0H15H0v15v70v15h15h70h15V85V15V0H85z M85,85H15V15h70V85z"/>
					</g>
				</g>
			</g>
			<g transform="translate(720,0) scale(2.8, 2.8)">
				<g transform="">
					<g>
						<rect x="15" y="15" class="st2" width="70" height="70"/>
						<path class="st1" d="M85,0H15H0v15v70v15h15h70h15V85V15V0H85z M85,85H15V15h70V85z"/>
					</g>
				</g>
			</g>
			<g transform="translate(0,720) scale(2.8, 2.8)">
				<g transform="">
					<g>
						<rect x="15" y="15" class="st2" width="70" height="70"/>
						<path class="st1" d="M85,0H15H0v15v70v15h15h70h15V85V15V0H85z M85,85H15V15h70V85z"/>
					</g>
				</g>
			</g>
			<g transform="translate(80,80) scale(1.2, 1.2)">
				<g transform="">
					<rect x="0" y="0" class="st1" width="100" height="100"/>
				</g>
			</g>
			<g transform="translate(800,80) scale(1.2, 1.2)">
				<g transform="">
					<rect x="0" y="0" class="st1" width="100" height="100"/>
				</g>
			</g>
			<g transform="translate(80,800) scale(1.2, 1.2)">
				<g transform="">
					<rect x="0" y="0" class="st1" width="100" height="100"/>
				</g>
			</g>
		</g>
	</mask>
	
		<radialGradient id="SVGID_1_" cx="250.17" cy="749.83" r="0.5" gradientTransform="matrix(1000 0 0 -1000 -249670 750330)" gradientUnits="userSpaceOnUse">
		<stop  offset="5.000000e-02" style="stop-color:#4F4872"/>
		<stop  offset="0.95" style="stop-color:#673367"/>
	</radialGradient>
	<rect x="0" y="0" class="st3" width="1000" height="1000"/>
</g>
</svg>
