<?xml version="1.0" encoding="UTF-8"?><svg id="a" xmlns="http://www.w3.org/2000/svg" xmlns:xlink="http://www.w3.org/1999/xlink" viewBox="0 0 500 500"><defs><style>.c{fill:url(#b);}.c,.d{stroke:#fff;stroke-miterlimit:10;}.e{fill:#fff;}.d{fill:#4e4871;}</style><linearGradient id="b" x1="52.5" y1="124.54" x2="394.4" y2="466.44" gradientTransform="matrix(1, 0, 0, 1, 0, 0)" gradientUnits="userSpaceOnUse"><stop offset=".28" stop-color="#4e4871"/><stop offset=".73" stop-color="#5b3c6a"/><stop offset="1" stop-color="#636"/></linearGradient></defs><path class="d" d="M260.43,178.6c0,21.9-7.61,42.01-20.32,57.85h-21.71v-33.99h-47.2v33.99l-27.15,31.54c-39.52-10.52-68.63-46.56-68.63-89.39,0-51.1,41.42-92.52,92.51-92.52s92.51,41.42,92.51,92.52Z"/><path class="e" d="M260.43,178.6c0,21.9-7.61,42.01-20.32,57.85h-21.71v-33.99h-47.2v33.99l-27.15,31.54c-39.52-10.52-68.63-46.56-68.63-89.39,0-51.1,41.42-92.52,92.51-92.52s92.51,41.42,92.51,92.52Z"/><path class="c" d="M433.3,291.99l-63.49-52.32c-2.52-2.08-5.69-3.22-8.95-3.22h-87.98c9.48-17.15,14.87-36.87,14.87-57.85,0-66.19-53.66-119.84-119.84-119.84S48.08,112.41,48.08,178.6c0,50.97,31.82,94.5,76.67,111.81l-1.57,1.84c-2.2,2.55-3.41,5.81-3.41,9.18v115.39c0,7.33,5.62,13.42,12.93,14.02l126.35,10.35c.68,.07,1.37,.07,2.06,.02l164.17-10.58c7.4-.48,13.17-6.63,13.17-14.04v-113.75c0-4.2-1.88-8.18-5.13-10.85Zm-214.9-55.54v-33.99h-47.2v33.99l-27.15,31.54c-39.52-10.52-68.63-46.56-68.63-89.39,0-51.1,41.42-92.52,92.51-92.52s92.51,41.42,92.51,92.52c0,21.9-7.61,42.01-20.32,57.85h-21.71Z"/><path class="e" d="M409.82,385.83l-52.68,3.11v-67.07c3.71-8.57,14.17-17.55,25.93-17.68,12.05-.14,22.94,5.78,26.75,14.57v67.07Z"/><path class="e" d="M334.99,389.2l-55.9,3.11v-67.07c3.94-8.57,15.04-17.55,27.51-17.68,12.79-.14,24.34,5.78,28.39,14.57v67.07Z"/></svg>