<?xml version="1.0" encoding="UTF-8"?><svg id="a" xmlns="http://www.w3.org/2000/svg" xmlns:xlink="http://www.w3.org/1999/xlink" viewBox="0 0 500 500"><defs><style>.c,.d{fill:#4e4871;}.e{fill:url(#b);}.e,.f,.d{stroke:#fff;stroke-miterlimit:10;}.g{fill:#fff;}.h{letter-spacing:.02em;}.h,.i{fill:#636;}.f{font-family:Impact, Impact;font-size:48px;}</style><linearGradient id="b" x1="50.68" y1="99.21" x2="363.28" y2="411.81" gradientTransform="matrix(1, 0, 0, 1, 0, 0)" gradientUnits="userSpaceOnUse"><stop offset=".28" stop-color="#4e4871"/><stop offset=".73" stop-color="#5b3c6a"/><stop offset="1" stop-color="#636"/></linearGradient></defs><text class="f" transform="translate(49.94 443.04)"><tspan class="c" x="0" y="0">Spirits E</tspan><tspan class="i" x="158.84" y="0">nte</tspan><tspan class="h" x="223.1" y="0">r</tspan><tspan class="i" x="241.15" y="0">tainment</tspan></text><g><path class="d" d="M240.79,148.64c0,20.02-6.96,38.41-18.58,52.89h-19.85v-31.08h-43.16v31.08l-24.82,28.84c-36.13-9.62-62.75-42.57-62.75-81.73,0-46.72,37.87-84.59,84.58-84.59s84.58,37.87,84.58,84.59Z"/><path class="g" d="M240.79,148.64c0,20.02-6.96,38.41-18.58,52.89h-19.85v-31.08h-43.16v31.08l-24.82,28.84c-36.13-9.62-62.75-42.57-62.75-81.73,0-46.72,37.87-84.59,84.58-84.59s84.58,37.87,84.58,84.59Z"/><path class="e" d="M398.85,252.31l-58.05-47.84c-2.3-1.9-5.2-2.94-8.18-2.94h-80.44c8.67-15.68,13.6-33.71,13.6-52.89,0-60.52-49.06-109.57-109.57-109.57S46.64,88.12,46.64,148.64c0,46.6,29.09,86.4,70.1,102.23l-1.44,1.68c-2.01,2.33-3.12,5.31-3.12,8.39v105.5c0,6.7,5.14,12.27,11.82,12.82l115.52,9.46c.62,.06,1.25,.06,1.88,.02l150.1-9.67c6.77-.44,12.04-6.06,12.04-12.84v-104c0-3.84-1.72-7.48-4.69-9.92Zm-196.49-50.78v-31.08h-43.16v31.08l-24.82,28.84c-36.13-9.62-62.75-42.57-62.75-81.73,0-46.72,37.87-84.59,84.58-84.59s84.58,37.87,84.58,84.59c0,20.02-6.96,38.41-18.58,52.89h-19.85Z"/><path class="g" d="M377.38,338.11l-48.17,2.84v-61.32c3.4-7.84,12.96-16.04,23.71-16.17,11.02-.12,20.98,5.29,24.46,13.32v61.32Z"/><path class="g" d="M308.96,341.19l-51.11,2.84v-61.32c3.6-7.84,13.75-16.04,25.15-16.17,11.69-.12,22.26,5.29,25.95,13.32v61.32Z"/></g></svg>