<?xml version="1.0" encoding="UTF-8"?><svg id="a" xmlns="http://www.w3.org/2000/svg" xmlns:xlink="http://www.w3.org/1999/xlink" viewBox="0 0 500 500"><defs><style>.c{fill:#4e4871;}.d{fill:#fff;}.e{fill:url(#b);}</style><linearGradient id="b" x1="153.46" y1="227.25" x2="396.42" y2="470.21" gradientTransform="matrix(1, 0, 0, 1, 0, 0)" gradientUnits="userSpaceOnUse"><stop offset="0" stop-color="#4e4871"/><stop offset=".63" stop-color="#5b3c6a"/><stop offset="1" stop-color="#636"/></linearGradient></defs><circle class="c" cx="174.86" cy="178.79" r="119.52"/><circle class="d" cx="174.86" cy="178.79" r="92.27"/><path class="e" d="M444.66,416.15v-113.45c0-4.19-1.87-8.16-5.11-10.83l-63.33-52.18c-2.51-2.07-5.67-3.2-8.92-3.2H225.2v-33.91h-47.08v33.91l-47.89,55.65c-2.19,2.55-3.4,5.79-3.4,9.15v115.09c0,7.31,5.61,13.39,12.89,13.99l126.02,10.33c.68,.06,1.37,.06,2.05,.02l163.74-10.55c7.38-.48,13.13-6.6,13.13-14Z"/><path class="d" d="M416.13,385.47l-52.54,3.1v-66.9c3.7-8.55,14.14-17.5,25.86-17.63,12.02-.14,22.88,5.77,26.68,14.53v66.9Z"/><path class="d" d="M341.5,388.83l-55.75,3.1v-66.9c3.93-8.55,15-17.5,27.44-17.63,12.75-.14,24.28,5.77,28.31,14.53v66.9Z"/></svg>